<svg width="330" height="175" viewBox="0 0 330 175" fill="none" xmlns="http://www.w3.org/2000/svg">
<mask id="mask0_0_4" style="mask-type:alpha" maskUnits="userSpaceOnUse" x="0" y="0" width="330" height="175">
<rect width="330" height="175" rx="20" fill="#3862F8"/>
</mask>
<g mask="url(#mask0_0_4)">
<path fill-rule="evenodd" clip-rule="evenodd" d="M261.544 2.27905C287.979 -12.0889 313.035 -36.8417 343.162 -30.2834C373.156 -23.7543 379.682 9.88611 397.889 31.9594C418.728 57.2245 457.193 75.0189 455.796 106.27C454.293 139.874 424.423 168.499 391.062 184.623C359.356 199.947 332.452 212.246 299.695 198.764C271.346 187.097 286.866 176.006 261.544 134.022C236.221 92.0378 186.146 102.731 186.146 54.762C186.146 6.79352 234.647 16.8977 261.544 2.27905Z" fill="#060F32"/>
<path fill-rule="evenodd" clip-rule="evenodd" d="M145.788 148.189C158.316 175.797 133.819 204.87 115.286 229.707C98.1654 252.65 77.3686 276.121 46.7561 280.905C17.6654 285.451 -10.378 270.254 -32.3175 252.774C-50.018 238.672 -51.8235 216.824 -58.9169 196.712C-66.5491 175.072 -80.5306 154.853 -74.6351 132.789C-66.5241 102.433 -56.0008 61.9132 -21.3413 56.0825C13.5318 50.2158 30.839 93.3799 60.9569 109.978C88.9536 125.407 133.505 121.119 145.788 148.189Z" fill="#3862F8"/>
<path fill-rule="evenodd" clip-rule="evenodd" d="M283.721 -28.3263C310.156 -42.6942 335.213 -67.4471 365.34 -60.8888C395.333 -54.3597 401.86 -20.7193 420.067 1.35405C440.906 26.6191 479.371 44.4135 477.973 75.6648C476.47 109.268 446.6 137.893 413.239 154.017C381.533 169.341 347.742 193.442 319.355 179.316C290.968 165.191 309.043 145.401 283.721 103.417C258.399 61.4324 208.324 72.1252 208.324 24.1566C208.324 -23.8119 256.825 -13.7077 283.721 -28.3263Z" stroke="white" stroke-width="3"/>
</g>
</svg>
