<svg width="185" height="223" viewBox="0 0 185 223" fill="none" xmlns="http://www.w3.org/2000/svg">
<path fill-rule="evenodd" clip-rule="evenodd" d="M107.831 2.90415C137.631 -15.4047 165.876 -46.9468 199.838 -38.5898C233.648 -30.2698 241.006 12.5977 261.53 40.7254C285.021 72.9203 328.382 95.5955 326.806 135.419C325.112 178.239 291.44 214.716 253.833 235.262C218.092 254.789 187.764 270.463 150.838 253.282C118.881 238.415 136.376 224.282 107.831 170.782C79.2857 117.282 22.8376 130.908 22.8376 69.7825C22.8376 8.65687 77.5114 21.5325 107.831 2.90415Z" fill="#4A4949"/>
<path fill-rule="evenodd" clip-rule="evenodd" d="M132.831 -36.0959C162.631 -54.4047 190.876 -85.9468 224.838 -77.5898C258.648 -69.2698 266.006 -26.4023 286.53 1.72544C310.021 33.9203 353.382 56.5955 351.806 96.4186C350.112 139.239 316.44 175.716 278.833 196.262C243.092 215.789 205 246.5 173 228.5C141 210.5 161.376 185.282 132.831 131.782C104.286 78.2825 47.8376 91.9081 47.8376 30.7825C47.8376 -30.3431 102.511 -17.4675 132.831 -36.0959Z" stroke="white" stroke-width="3"/>
</svg>
